<?xml version="1.0" standalone="no"?>
<!DOCTYPE svg PUBLIC "-//W3C//DTD SVG 20010904//EN"
 "http://www.w3.org/TR/2001/REC-SVG-20010904/DTD/svg10.dtd">
<svg version="1.0" xmlns="http://www.w3.org/2000/svg"
 width="566.000000pt" height="566.000000pt" viewBox="0 0 566.000000 566.000000"
 preserveAspectRatio="xMidYMid meet">
<metadata>
Created by potrace 1.14, written by Peter Selinger 2001-2017
</metadata>
<g transform="translate(0.000000,566.000000) scale(0.100000,-0.100000)"
fill="#000000" stroke="none">
<path d="M2741 5100 c-2 -28 -77 -95 -165 -150 -31 -19 -77 -50 -101 -67 -41
-30 -57 -33 -37 -7 4 5 -3 0 -14 -13 -12 -12 -25 -19 -28 -16 -3 4 -6 0 -6 -8
0 -16 -40 -55 -52 -51 -5 1 -8 -4 -8 -12 0 -8 -7 -16 -15 -20 -11 -4 -15 2
-16 22 -1 15 -2 32 -4 37 -1 6 -3 33 -4 60 l-1 50 -23 -45 c-32 -65 -50 -90
-64 -90 -7 0 -13 -6 -13 -14 0 -8 -3 -16 -7 -18 -5 -1 -19 -24 -32 -50 -24
-45 -48 -56 -38 -17 3 11 1 19 -3 19 -5 0 -11 -10 -13 -22 -3 -18 -5 -15 -7
10 -1 17 -3 35 -4 40 -1 4 -5 33 -10 64 -9 69 -21 83 -20 25 0 -23 -2 -46 -5
-52 -3 -5 -6 -12 -6 -15 0 -3 -6 -20 -14 -37 -14 -34 -35 -47 -24 -15 5 14 3
13 -10 -3 -9 -11 -17 -25 -17 -31 0 -6 -7 -17 -15 -24 -8 -7 -13 -16 -10 -20
3 -5 1 -11 -5 -15 -6 -4 -8 -10 -5 -15 3 -5 1 -11 -5 -15 -5 -3 -10 -15 -10
-26 0 -11 -5 -17 -10 -14 -6 4 -8 10 -6 14 3 4 0 13 -6 21 -8 12 -9 12 -4 -2
3 -11 0 -18 -7 -18 -8 0 -9 -3 -1 -8 6 -4 14 -15 17 -26 6 -14 3 -17 -8 -12
-10 3 -15 -1 -15 -12 0 -13 -4 -12 -20 8 -11 14 -26 39 -34 55 -15 29 -15 29
-14 -36 2 -79 -7 -98 -32 -72 -9 10 -22 32 -28 48 -11 30 -11 30 -10 -10 1
-22 6 -43 11 -46 5 -4 3 -12 -5 -20 -8 -7 -13 -24 -11 -38 4 -25 4 -25 -11 -7
-9 11 -19 17 -22 13 -4 -3 -15 4 -25 16 -15 17 -14 12 4 -24 23 -44 19 -54
-10 -36 -18 12 -16 1 5 -19 16 -17 16 -17 -3 -10 -11 5 -35 14 -54 21 -19 7
-41 21 -49 31 -14 18 -14 18 -9 -3 3 -13 1 -23 -4 -23 -5 0 -9 5 -9 11 0 5 -4
8 -9 4 -5 -3 -12 -1 -16 5 -3 5 -11 10 -16 10 -6 0 -3 -7 5 -16 19 -19 21 -28
4 -17 -7 4 -29 8 -48 9 -45 3 -86 10 -100 19 -9 6 -9 2 0 -15 9 -17 9 -25 -1
-34 -9 -8 -10 -8 -4 4 8 13 6 13 -7 2 -9 -7 -43 -14 -76 -15 -33 -1 -58 -5
-55 -9 2 -5 11 -8 20 -8 14 0 14 -3 -2 -20 -10 -11 -25 -20 -34 -20 -21 -1
-51 -24 -65 -51 -6 -12 -15 -21 -20 -20 -5 2 -12 -3 -17 -11 -5 -7 -13 -14
-19 -14 -5 -1 -16 -2 -22 -3 -8 -1 -6 -6 5 -12 16 -10 16 -12 -9 -38 -16 -17
-28 -42 -29 -62 -2 -18 -8 -35 -14 -37 -6 -2 -11 -9 -11 -15 0 -6 -8 -20 -17
-31 -12 -14 -9 -13 10 4 l29 25 -13 -27 c-7 -16 -16 -28 -21 -28 -5 0 -4 -9 2
-20 7 -13 7 -20 1 -20 -6 0 -7 -7 -4 -17 5 -12 3 -14 -7 -8 -10 6 -10 4 -2
-11 6 -11 7 -27 1 -41 -5 -13 -5 -23 0 -23 4 0 7 -15 6 -32 -1 -18 7 -56 16
-85 10 -28 15 -54 12 -57 -4 -3 -1 -6 5 -6 7 0 11 -3 11 -7 -1 -5 0 -11 1 -15
4 -13 7 -27 9 -39 0 -5 7 -7 13 -3 8 5 7 0 -2 -11 -8 -10 -10 -16 -3 -12 6 4
14 3 18 -3 3 -5 1 -10 -6 -10 -7 0 -1 -9 12 -21 13 -12 23 -26 21 -31 -1 -5 2
-7 8 -3 6 4 17 -9 25 -27 8 -18 14 -27 15 -20 0 10 3 10 14 0 8 -7 13 -15 11
-18 -1 -3 11 -16 28 -30 17 -14 28 -18 23 -10 -4 8 3 3 16 -11 13 -14 29 -24
35 -22 6 2 15 -1 19 -8 5 -8 3 -9 -6 -4 -9 5 -11 4 -6 -4 6 -9 11 -9 22 0 11
9 14 8 14 -5 0 -9 6 -16 13 -16 8 0 14 -7 14 -15 0 -8 -3 -13 -6 -11 -3 2 -17
-7 -30 -20 l-25 -23 25 6 c21 6 22 4 12 -9 -7 -8 -9 -19 -5 -24 4 -4 -1 -3
-10 4 -14 11 -16 10 -11 -7 6 -23 18 -27 28 -11 8 13 25 13 25 -1 0 -5 -5 -7
-10 -4 -9 6 -14 -8 -11 -27 0 -5 -6 -8 -14 -8 -8 0 -14 -6 -13 -12 2 -7 -4
-13 -12 -13 -8 0 -21 -8 -28 -18 -7 -9 -17 -15 -22 -12 -5 3 -11 2 -14 -3 -9
-16 28 -9 64 11 25 14 31 15 21 3 -7 -8 -10 -19 -7 -25 3 -5 -1 -12 -10 -15
-8 -3 -12 -11 -8 -17 4 -7 3 -10 -2 -7 -12 8 -35 -17 -26 -28 4 -4 1 -4 -6 0
-18 11 -35 -3 -22 -19 8 -9 5 -14 -11 -18 -11 -3 -18 -10 -15 -16 4 -5 1 -13
-5 -17 -8 -4 -9 -3 -5 4 10 17 1 15 -42 -8 l-37 -21 42 5 c53 6 64 -8 23 -29
-16 -8 -30 -18 -30 -21 0 -2 13 2 30 11 34 18 40 18 40 5 0 -13 -54 -70 -66
-70 -5 0 -15 -10 -23 -22 l-14 -23 23 20 23 20 -14 -22 c-8 -13 -19 -23 -26
-23 -7 0 -13 -4 -13 -8 0 -5 -11 -15 -25 -22 -14 -7 -25 -18 -25 -23 0 -6 9
-2 19 7 12 11 21 14 26 7 3 -6 1 -11 -5 -11 -6 0 -10 -6 -9 -12 3 -18 -12 -49
-33 -73 -10 -10 -16 -25 -14 -31 3 -7 -2 -18 -10 -25 -9 -7 -13 -20 -11 -30 3
-11 0 -16 -8 -13 -6 3 -18 -3 -26 -12 -9 -12 -10 -15 -1 -10 6 4 12 3 12 -1 0
-5 -6 -15 -12 -22 -11 -11 -9 -11 9 0 12 7 19 18 16 24 -4 7 -2 7 5 0 9 -8 9
-20 -1 -45 -6 -19 -14 -37 -17 -40 -3 -3 -7 -14 -8 -25 -2 -11 -9 -23 -15 -27
-8 -5 -7 -8 4 -8 9 0 16 -7 16 -15 0 -8 -4 -15 -9 -15 -4 0 -8 -8 -8 -17 0 -9
-7 -25 -17 -35 -21 -23 -10 -36 12 -14 29 28 30 21 10 -71 -4 -18 -4 -33 1
-33 5 0 8 -15 8 -32 -1 -18 -6 -32 -10 -31 -5 1 -9 -12 -9 -28 0 -26 2 -27 12
-13 7 9 10 22 6 28 -4 7 -2 7 6 0 12 -11 15 -58 8 -136 -2 -20 -1 -37 2 -36
20 2 31 -3 26 -12 -3 -5 -1 -10 5 -10 6 0 8 -5 5 -10 -4 -6 -2 -17 4 -23 5 -7
11 -30 13 -50 1 -20 6 -37 10 -37 8 0 12 16 9 33 0 4 4 7 10 7 6 0 8 -8 4 -19
-11 -37 -14 -61 -6 -61 5 0 11 9 14 20 3 11 10 20 17 20 6 0 10 -6 7 -12 -2
-7 0 -21 5 -30 15 -31 17 -106 2 -125 -30 -40 -10 -45 31 -7 15 14 30 23 33
19 3 -3 7 -31 8 -63 2 -31 4 -58 5 -59 1 -2 2 -7 3 -13 0 -5 6 -10 11 -10 10
0 12 4 14 46 1 28 21 23 21 -6 0 -10 6 -20 14 -23 7 -3 16 -20 20 -39 3 -18 9
-44 12 -58 3 -14 6 -36 6 -50 l-1 -25 10 25 c6 13 7 35 4 47 -3 13 -1 23 5 23
6 0 9 -4 5 -9 -3 -5 2 -16 10 -24 8 -9 12 -22 9 -30 -3 -8 -1 -18 5 -22 7 -4
9 1 5 12 -4 12 0 10 15 -7 13 -15 21 -40 21 -63 0 -35 2 -37 15 -23 9 9 23 12
33 9 15 -6 15 -5 3 10 -12 15 -12 17 0 12 20 -8 36 -47 34 -84 -2 -36 5 -39
23 -11 16 26 25 25 39 -6 10 -22 10 -24 -3 -13 -12 10 -13 9 -8 -5 3 -9 10
-16 16 -16 5 0 8 -6 6 -13 -2 -7 2 -12 7 -12 6 0 9 3 8 7 -1 3 4 9 12 12 9 3
15 -1 15 -10 0 -8 7 -17 15 -20 8 -4 12 -11 8 -17 -3 -6 -1 -7 5 -3 17 11 15
24 -5 28 -17 3 -17 4 -1 10 12 5 20 -1 30 -22 7 -16 19 -32 26 -35 9 -3 10 0
2 15 -9 16 -8 18 5 14 8 -4 15 -10 15 -15 0 -5 7 -9 16 -9 8 0 13 -3 11 -7 -3
-5 8 -21 24 -38 26 -27 28 -28 26 -7 -1 12 -5 22 -9 22 -4 0 -8 5 -8 10 0 6
11 3 25 -6 18 -12 24 -22 20 -35 -4 -11 -2 -19 5 -19 6 0 8 5 4 13 -6 9 -4 9
8 -1 13 -10 17 -10 20 0 4 10 9 8 22 -5 10 -9 22 -14 28 -11 7 4 8 2 4 -5 -4
-6 -11 -9 -16 -6 -5 3 -12 0 -16 -6 -7 -12 10 -10 50 7 14 5 17 4 12 -4 -11
-19 5 -14 21 5 12 16 14 14 11 -24 -3 -33 -1 -39 9 -31 7 6 13 7 13 3 0 -4 6
-3 13 3 9 8 12 4 12 -14 0 -13 -4 -24 -8 -24 -5 0 -5 -6 0 -13 4 -6 6 -20 4
-31 -1 -10 1 -16 6 -13 9 6 9 -132 0 -192 -6 -42 9 -78 37 -88 31 -10 100 -12
106 -2 3 5 18 2 33 -6 15 -7 27 -11 27 -8 0 3 6 1 13 -4 6 -5 26 -8 42 -6 17
2 59 5 93 7 35 3 70 10 77 16 9 8 25 8 47 2 67 -17 123 -2 137 39 10 29 5 89
-8 89 -8 0 -35 60 -37 85 -2 33 6 47 21 35 11 -9 12 -6 8 11 -5 16 -3 20 6 14
10 -6 11 -3 2 14 -15 27 -1 27 33 0 14 -11 26 -16 26 -10 0 6 7 11 15 11 8 0
15 -7 15 -15 0 -8 5 -15 11 -15 6 0 9 7 6 15 -5 11 3 14 38 11 26 -2 45 1 45
7 0 6 3 7 6 4 4 -4 -1 -19 -11 -34 l-18 -28 24 21 c38 33 50 38 43 17 -5 -17
-5 -17 9 0 19 22 31 22 24 -2 -3 -14 0 -17 14 -14 10 3 16 10 12 16 -4 6 0 8
9 4 9 -3 21 0 28 6 10 10 12 8 6 -6 -4 -13 -2 -17 6 -14 7 2 12 10 11 16 -2 6
7 11 20 11 16 0 18 -3 9 -9 -17 -11 -17 -22 0 -32 7 -5 14 -26 14 -49 2 -64 3
-68 19 -84 13 -12 157 -64 197 -70 7 -1 20 -6 28 -11 21 -14 183 -17 191 -4 4
7 25 8 66 2 33 -5 70 -6 83 -1 12 4 36 11 53 14 18 3 39 12 48 20 21 19 18 81
-5 117 -21 31 -76 67 -106 70 -12 1 -20 8 -20 19 0 10 -4 18 -9 18 -5 0 -5 15
1 35 6 19 15 32 20 29 4 -3 8 4 8 15 0 11 5 23 10 26 6 3 10 1 10 -4 0 -20 28
-11 35 11 4 16 8 19 12 10 4 -10 9 -7 17 10 7 12 20 22 29 22 9 -1 14 2 11 7
-3 5 0 9 5 9 6 0 11 -6 11 -14 0 -20 30 -29 36 -11 4 8 11 12 18 8 6 -3 8 -3
4 1 -8 9 1 21 50 72 40 41 44 42 36 9 -3 -14 -4 -25 -1 -25 10 0 77 70 77 80
0 6 5 8 10 5 6 -3 10 2 10 11 0 10 3 14 7 11 3 -4 12 -2 20 4 9 9 13 8 13 0 0
-19 18 -12 25 9 4 11 10 18 14 15 7 -4 36 43 34 55 -1 3 5 11 13 18 8 7 14 8
14 2 0 -5 4 -10 10 -10 5 0 7 7 3 15 -3 10 0 15 8 13 8 -2 15 7 17 20 2 12 8
22 13 22 5 0 8 6 6 13 -1 6 4 11 11 10 6 -2 12 2 12 8 0 6 7 17 15 25 8 9 15
12 15 7 0 -5 -6 -15 -12 -22 -11 -10 -10 -12 2 -9 8 2 23 29 34 61 10 32 24
56 30 54 11 -4 12 -8 15 -43 2 -32 19 -3 18 33 0 21 5 49 11 63 10 24 25 75
26 94 2 23 22 13 24 -11 3 -40 22 -54 23 -18 0 17 2 39 4 50 2 11 5 37 7 58 2
38 12 39 21 2 3 -11 5 0 6 25 1 39 20 97 21 63 0 -7 5 -13 10 -13 7 0 7 6 2
18 -5 9 -7 26 -5 37 2 11 5 27 5 35 1 8 7 24 14 35 14 19 14 19 14 -3 0 -12 5
-22 12 -22 6 0 8 3 5 7 -4 3 -1 13 6 21 7 10 8 13 1 9 -8 -4 -12 1 -12 16 0
12 -2 38 -5 57 -3 19 -3 29 0 22 2 -6 10 -9 15 -6 6 4 9 3 6 -2 -3 -5 1 -16
10 -24 18 -16 18 -19 -12 52 -9 21 -13 38 -9 38 5 0 9 21 9 48 3 75 8 102 19
99 5 -2 11 -13 13 -25 2 -12 7 -22 12 -22 5 0 5 13 0 29 -4 15 -4 34 0 42 5 7
6 17 3 22 -8 13 -10 107 -2 107 4 0 12 -14 18 -31 6 -17 15 -28 21 -24 8 5 7
11 -1 21 -6 8 -9 17 -6 21 4 3 2 12 -4 19 -6 8 -9 21 -5 29 3 8 1 15 -3 15 -5
0 -8 17 -7 38 1 20 -4 46 -11 57 -11 18 -10 21 7 22 11 1 18 -2 15 -8 -4 -5 3
-9 15 -9 21 0 20 1 -3 22 -28 27 -48 75 -26 64 8 -4 6 -1 -4 7 -9 8 -15 21
-11 30 3 8 0 18 -5 22 -6 3 -9 11 -6 16 4 5 2 9 -3 9 -5 0 -12 8 -16 18 -3 9
-9 23 -12 30 -5 10 3 9 32 -3 20 -8 38 -14 39 -13 1 2 -13 17 -32 35 -18 17
-33 29 -33 26 0 -3 -10 7 -21 22 -18 22 -20 29 -8 36 8 5 23 9 34 9 14 0 10 5
-15 17 -19 10 -36 21 -38 25 -2 4 -10 8 -17 8 -7 0 -15 9 -18 21 -3 11 -14 23
-25 25 -19 6 -60 64 -44 64 5 0 12 -3 16 -7 10 -11 36 -12 36 -2 0 5 -4 9 -10
9 -11 0 -50 36 -50 46 0 4 11 4 24 2 36 -7 40 18 6 32 -33 14 -49 41 -19 33
24 -7 25 14 1 21 -10 4 -32 20 -48 38 -16 17 -23 28 -16 23 8 -4 2 11 -11 32
-18 29 -21 40 -11 40 8 0 14 -4 14 -8 0 -4 7 -10 16 -13 15 -6 15 -4 3 11 -8
10 -20 22 -27 26 -7 5 -10 13 -7 18 4 5 12 6 18 2 18 -11 38 -12 31 -2 -3 5
-12 9 -20 9 -8 0 -14 5 -14 10 0 6 -6 10 -13 10 -16 0 -57 42 -57 58 0 7 -4
12 -10 12 -5 0 -10 7 -10 15 0 13 4 14 20 5 26 -14 26 -2 -2 21 -21 19 -21 19
28 14 l49 -6 -31 14 c-17 8 -41 23 -53 33 -36 30 -64 95 -38 86 13 -4 7 14
-12 35 -21 23 -16 40 6 22 7 -6 13 -7 13 -3 0 5 -11 18 -25 28 -14 10 -25 25
-25 32 0 7 -5 14 -11 16 -7 2 -5 9 5 17 14 12 16 12 10 -3 -5 -12 -2 -15 9
-10 9 3 13 12 11 19 -7 16 24 78 35 71 4 -3 13 17 20 44 7 28 17 50 23 50 5 0
7 3 5 8 -3 4 0 18 6 32 9 23 16 62 18 103 0 9 5 15 11 11 6 -4 6 1 -1 14 -15
28 -14 55 2 46 8 -6 8 -3 -1 9 -8 9 -11 21 -8 26 4 5 2 12 -4 16 -17 11 -11
28 7 21 13 -5 11 0 -7 20 -14 15 -19 24 -12 20 17 -10 15 0 -5 32 -17 26 -17
26 0 13 23 -19 22 0 -3 27 -11 12 -20 28 -20 37 0 8 -5 15 -11 15 -5 0 -8 4
-5 9 4 5 0 12 -6 15 -10 5 -10 7 1 12 11 5 8 11 -10 25 -13 10 -18 19 -11 19
18 0 -68 80 -87 80 -12 0 -13 2 -3 9 11 6 11 10 0 18 -15 12 -60 28 -70 25
-16 -4 -7 27 10 37 10 6 12 11 4 11 -8 0 -10 5 -6 13 6 10 4 10 -7 0 -16 -15
-83 -18 -74 -3 4 6 -5 10 -19 10 -14 0 -26 5 -26 11 0 6 -5 7 -12 2 -17 -10
-38 -13 -38 -5 0 3 8 14 18 25 16 19 16 19 -8 12 -14 -4 -34 -14 -45 -21 -26
-18 -39 -18 -31 1 7 19 3 19 -44 -4 -44 -21 -54 -18 -39 11 10 18 8 18 -20 -3
-17 -12 -31 -27 -31 -32 0 -4 -9 -6 -19 -2 -14 4 -23 0 -31 -15 -13 -24 -32
-27 -23 -2 3 9 -5 4 -18 -13 -23 -29 -34 -32 -94 -26 l-20 2 20 9 c11 5 32 9
48 9 42 1 32 18 -10 18 -92 1 -94 1 -81 23 7 11 18 20 24 20 9 0 55 31 100 69
7 6 14 8 17 5 2 -3 7 2 10 10 5 12 1 13 -16 7 -22 -8 -123 -6 -162 3 -11 2
-35 5 -53 5 -18 1 -31 5 -28 9 3 4 -20 7 -50 6 -59 -2 -80 11 -42 25 13 5 29
15 36 23 10 12 5 14 -27 12 -21 -1 -47 -7 -58 -12 -21 -12 -48 -11 -60 3 -4 4
-3 5 4 2 6 -4 26 5 45 20 69 57 71 63 13 39 -18 -8 -36 -12 -39 -9 -2 3 -11 1
-18 -3 -13 -8 -31 -12 -73 -17 -11 -1 -23 -6 -27 -12 -5 -6 -11 -5 -16 3 -5 8
-16 10 -28 5 -17 -6 -18 -5 -4 13 8 10 23 26 32 35 10 9 18 21 18 26 0 5 16
26 35 46 19 20 35 41 35 45 0 4 9 14 20 22 11 8 20 20 20 26 0 7 7 15 16 18 9
4 14 9 11 12 -3 4 -23 -4 -44 -17 -21 -13 -40 -24 -43 -25 -3 0 -23 -8 -45
-18 -22 -9 -48 -15 -57 -12 -11 2 -15 0 -11 -7 4 -6 0 -8 -9 -4 -16 6 -52 -6
-123 -38 -22 -10 -43 -18 -47 -17 -5 1 -8 -3 -8 -9 0 -5 -5 -7 -10 -4 -6 3
-13 -1 -16 -9 -3 -9 -10 -13 -15 -10 -5 3 -4 14 2 25 6 12 8 23 5 27 -3 3 -6
0 -6 -6 0 -13 -28 -42 -41 -42 -6 0 -6 7 0 18 9 15 22 48 26 62 0 3 7 22 14
42 7 21 10 46 8 55 -4 14 -5 14 -6 3z m-11 -190 c0 -5 -5 -10 -11 -10 -5 0 -7
5 -4 10 3 6 8 10 11 10 2 0 4 -4 4 -10z m-1300 -554 c0 -3 -4 -8 -10 -11 -5
-3 -10 -1 -10 4 0 6 5 11 10 11 6 0 10 -2 10 -4z m2333 -3356 c-3 -12 -8 -19
-11 -16 -5 6 5 36 12 36 2 0 2 -9 -1 -20z"/>
<path d="M1055 2669 l-30 -19 26 2 c15 1 32 10 38 20 14 23 4 22 -34 -3z"/>
<path d="M3850 1040 c0 -5 5 -10 11 -10 5 0 7 5 4 10 -3 6 -8 10 -11 10 -2 0
-4 -4 -4 -10z"/>
<path d="M2755 820 c-3 -5 -1 -10 4 -10 6 0 11 5 11 10 0 6 -2 10 -4 10 -3 0
-8 -4 -11 -10z"/>
</g>
</svg>
